<svg width="95" height="95" viewBox="0 0 95 95" fill="none" xmlns="http://www.w3.org/2000/svg">
<rect width="95" height="95" fill="transparent"/>
<g clip-path="url(#clip0_177_10386)">
<path d="M75.7166 44.6478C75.6933 44.7878 75.67 44.9278 75.6544 45.0678C74.9465 43.0067 74.0286 40.9689 72.9163 38.9856C72.3795 38.0134 71.7883 37.08 71.1582 36.1545C70.4737 33.3156 69.1202 30.8267 67.1521 28.8511C65.1763 26.8756 62.6871 25.53 59.8478 24.8378C58.7276 24.5656 57.553 24.4022 56.3317 24.34C55.9895 24.3167 55.6316 24.3089 55.2816 24.3089C54.2081 24.3089 53.0957 24.3867 51.96 24.5422C50.6376 24.7289 49.3152 25.0245 48.0084 25.4211C47.2382 25.6545 46.4759 25.9189 45.7136 26.2222C41.5208 27.8711 37.5147 30.5311 34.0297 34.0078C30.5837 37.4534 27.9467 41.4122 26.2898 45.5578C26.1575 44.9822 26.0564 44.3989 25.9786 43.8389C25.7764 42.4311 25.7064 41.0545 25.7764 39.7556C25.823 38.7134 25.9553 37.71 26.1809 36.7456C27.5655 34.7078 29.1757 32.7789 30.9804 30.9667C32.7851 29.1622 34.7221 27.5522 36.7523 26.1678C37.7091 25.4989 38.6815 24.9 39.6772 24.34C42.3531 22.8311 45.1613 21.6878 48.0006 20.9567C48.125 20.9256 48.2339 20.8945 48.3584 20.8711C49.3541 20.6222 50.3576 20.4278 51.3533 20.28C58.8676 19.2067 65.5652 21.1667 70.1937 25.8022C74.8221 30.43 76.7823 37.1267 75.7166 44.64V44.6478Z" fill="url(#paint0_linear_177_10386)"/>
<path d="M45.5675 69.7156C44.9918 69.8478 44.4084 69.9489 43.8483 70.0267C42.7904 70.1745 41.7558 70.2601 40.7446 70.2601C40.4179 70.2601 40.0834 70.2601 39.7644 70.2289C38.7221 70.1823 37.7186 70.0501 36.7618 69.8323C34.7315 68.4478 32.7946 66.8378 30.9821 65.0334C29.1696 63.2212 27.5672 61.2845 26.1825 59.2545C25.5213 58.2901 24.9146 57.3256 24.3545 56.3223C24.1756 56.0112 24.0122 55.7078 23.8411 55.3889C22.5887 53.0012 21.6241 50.5201 20.9785 48.0078C20.9474 47.8834 20.9163 47.7745 20.8929 47.6501C20.644 46.6545 20.4495 45.6512 20.3017 44.6556C19.2127 37.1345 21.173 30.4378 25.8014 25.8101C30.4376 21.1745 37.1352 19.2145 44.6496 20.2878C44.7896 20.3112 44.9296 20.3345 45.0696 20.3501C42.9927 21.0578 40.9546 21.9756 38.9788 23.0956C38.022 23.6323 37.0807 24.2156 36.1628 24.8378C33.3235 25.5301 30.8265 26.8756 28.8585 28.8512C26.8904 30.8267 25.5369 33.3078 24.8524 36.1545C24.5723 37.2823 24.409 38.4645 24.339 39.6934C24.2689 41.0856 24.339 42.5478 24.5568 44.0489C24.7435 45.3712 25.0391 46.6934 25.4358 48.0001C25.6691 48.7701 25.9336 49.5323 26.237 50.2945C27.8861 54.4867 30.5465 58.4923 34.0236 61.9767C36.6218 64.5745 39.5155 66.7134 42.5493 68.3156C43.5372 68.8367 44.5484 69.3034 45.5752 69.7156H45.5675Z" fill="white"/>
<path d="M70.2349 56.2368C70.1883 57.279 70.056 58.2823 69.8304 59.2468C68.4458 61.2845 66.8356 63.2134 65.0309 65.0256C63.2184 66.8379 61.2893 68.4401 59.259 69.8245C58.2944 70.4934 57.322 71.1001 56.3263 71.6601C56.0152 71.839 55.7118 72.0023 55.3929 72.1734C53.0048 73.4257 50.5233 74.3901 48.0107 75.0357C47.8863 75.0668 47.7774 75.0979 47.6529 75.1212C46.6572 75.3701 45.6538 75.5645 44.6581 75.7123C43.3123 75.899 41.9977 76.0001 40.7064 76.0001C34.8022 76.0001 29.6137 74.0012 25.8099 70.1901C21.1737 65.5623 19.2134 58.8656 20.2869 51.3523C20.3102 51.2123 20.3336 51.0801 20.3491 50.9401C20.9403 52.6668 21.6793 54.3779 22.5505 56.0345C22.7217 56.369 22.9006 56.7034 23.0795 57.0068C23.6162 57.979 24.2074 58.9123 24.8375 59.8379C25.5221 62.6768 26.8756 65.1656 28.8436 67.1412C30.8195 69.109 33.3009 70.4623 36.1402 71.1468C37.2681 71.4268 38.4505 71.5901 39.6796 71.6601C41.072 71.7301 42.5344 71.6601 44.0358 71.4423C45.3582 71.2556 46.6806 70.9601 47.9874 70.5634C48.7575 70.3301 49.5198 70.0656 50.2822 69.7623C54.4672 68.1134 58.4811 65.4534 61.9582 61.9768C64.5564 59.379 66.6956 56.4856 68.298 53.4523C68.8192 52.4645 69.2859 51.4534 69.6982 50.4268C69.8304 51.0023 69.9316 51.5856 70.0094 52.1456C70.2116 53.5534 70.2816 54.9301 70.2116 56.229L70.2349 56.2368Z" fill="url(#paint1_linear_177_10386)"/>
<path d="M70.1958 70.1898C66.3919 73.9931 61.2034 75.9998 55.2993 75.9998C54.0157 75.9998 52.6933 75.8987 51.3476 75.712C51.2076 75.6887 51.0753 75.6654 50.9353 75.6498C52.6622 75.0587 54.3736 74.3198 56.0382 73.4487C56.365 73.2776 56.6995 73.0987 57.0106 72.9198C57.983 72.3831 58.9164 71.792 59.8499 71.162C62.6892 70.4776 65.1784 69.1243 67.1465 67.1565C69.1145 65.1809 70.468 62.6998 71.1526 59.8531C71.4326 58.7254 71.596 57.5431 71.666 56.3143C71.736 54.922 71.666 53.4598 71.4482 51.9587C71.2615 50.6365 70.9659 49.3143 70.5692 48.0076C70.3358 47.2376 70.0713 46.4754 69.7679 45.7131C68.1188 41.5209 65.4584 37.5076 61.9813 34.0309C58.5353 30.5854 54.5758 27.9487 50.4297 26.292C51.0053 26.1598 51.5887 26.0587 52.1488 25.9809C53.2067 25.8331 54.2569 25.7554 55.2681 25.7554C55.5949 25.7554 55.9138 25.7554 56.2405 25.7865C57.2829 25.8331 58.2786 25.9654 59.2354 26.1831C61.2656 27.5676 63.2026 29.1854 65.0073 30.982C66.8197 32.7943 68.4222 34.7231 69.8068 36.7531C70.4758 37.7254 71.0826 38.6976 71.6426 39.6931C73.144 42.3687 74.2875 45.1687 75.0187 48.0076C75.2909 49.0809 75.5165 50.1465 75.6721 51.2198C75.6721 51.2665 75.6876 51.3131 75.6954 51.3598C76.7689 58.8731 74.8086 65.5698 70.1724 70.1976L70.1958 70.1898Z" fill="white"/>
</g>
<defs>
<linearGradient id="paint0_linear_177_10386" x1="76.0001" y1="32.7755" x2="25.75" y2="32.7755" gradientUnits="userSpaceOnUse">
<stop stop-color="#818CF8"/>
<stop offset="1" stop-color="#EC4899"/>
</linearGradient>
<linearGradient id="paint1_linear_177_10386" x1="70.238" y1="63.2134" x2="20" y2="63.2134" gradientUnits="userSpaceOnUse">
<stop stop-color="#818CF8"/>
<stop offset="1" stop-color="#EC4899"/>
</linearGradient>
<clipPath id="clip0_177_10386">
<rect width="56" height="56" fill="none" transform="translate(20 20)"/>
</clipPath>
</defs>
</svg>
